<svg id="Layer_1" enable-background="new 0 0 510.687 510.687" height="512" viewBox="0 0 510.687 510.687" width="512" xmlns="http://www.w3.org/2000/svg"><g><path d="m509.043 1.586c-10.555-.71-34.561-2.9-66.695-.367-40.97 3.23-67.697 12.52-81.708 28.399l-31.001 35.135-303.839-36.509 21.384 96.988 177.025 59.008-117.283 132.92-106.926-20.14v92.908l76.322 22.761-65.391 65.391 21.213 21.213 66.064-66.064 26.007 77.43h93.014l-22.487-107.608 131.784-116.28 58.902 176.704 96.987 21.384-36.464-303.463 35.31-31.156c15.889-14.02 25.144-40.793 28.292-81.851 2.179-28.418.772-48.336-.51-66.803zm-444.843 61.488 241.333 28.998-59.763 67.732-172.954-57.652zm383.385 383.384-39.078-8.616-57.545-172.632 67.67-59.709zm13.828-318.714-19.808 17.478v-.001l-125.384 110.634v.001l-154.415 136.247 18.505 88.555h-34.526l-29.324-87.305-86.461-25.784v-34.37l88.135 16.601 265-300.333c13.416-15.205 61.154-20.222 97.524-19.427.902 36.441-4.01 84.261-19.246 97.704z"/><path d="m290.237 120.487h169v30h-169z" transform="matrix(.707 -.707 .707 .707 13.955 304.662)"/></g></svg>